<svg width="100%" height="100%" id="svg" viewBox="0 0 1440 490" xmlns="http://www.w3.org/2000/svg" class="transition duration-300 ease-in-out delay-150">
  <defs>
    <linearGradient id="gradient" x1="0%" y1="50%" x2="100%" y2="50%">
      <stop offset="5%" stop-color="#0358a8"></stop>
      <stop offset="95%" stop-color="#0358a8"></stop>
    </linearGradient>
  </defs>
  <path d="M 0,500 L 0,75 C 22.216957495205854,82.70089741533536 44.43391499041171,90.40179483067074 84,86 C 123.56608500958829,81.59820516932926 180.48129753355903,65.09371809265242 219,61 C 257.51870246644097,56.90628190734758 277.6408948753521,65.22333279871955 304,74 C 330.3591051246479,82.77666720128045 362.95512296503256,92.0129507124694 403,84 C 443.04487703496744,75.9870492875306 490.5386132645177,50.72486435140287 524,38 C 557.4613867354823,25.275135648597125 576.890423976897,25.087591881919117 604,42 C 631.109576023103,58.91240811808088 665.8996908278943,92.92476812092066 703,93 C 740.1003091721057,93.07523187907934 779.510812711526,59.213335634398284 815,47 C 850.489187288474,34.786664365601716 882.0570583260013,44.221889341486175 913,48 C 943.9429416739987,51.778110658513825 974.2609539844691,49.899106999657 1013,56 C 1051.739046015531,62.100893000343 1098.8991257361217,76.18168265988577 1139,79 C 1179.1008742638783,81.81831734011423 1212.142543071044,73.37416236079999 1246,70 C 1279.857456928956,66.62583763920001 1314.5307019797017,68.32166789691429 1347,70 C 1379.4692980202983,71.67833210308571 1409.734649010149,73.33916605154286 1440,75 L 1440,500 L 0,500 Z" stroke="none" stroke-width="0" fill="url(#gradient)" fill-opacity="0.265" class="transition-all duration-300 ease-in-out delay-150 path-0"></path>
  <defs>
    <linearGradient id="gradient" x1="0%" y1="50%" x2="100%" y2="50%">
      <stop offset="5%" stop-color="#0358a8"></stop>
      <stop offset="95%" stop-color="#0358a8"></stop>
    </linearGradient>
  </defs>
  <path d="M 0,500 L 0,175 C 29.859053139475208,180.0692668019417 59.718106278950415,185.13853360388336 95,181 C 130.28189372104958,176.86146639611664 170.9866280236736,163.51513238640828 205,156 C 239.0133719763264,148.48486761359172 266.3353816263551,146.80093685048345 301,144 C 335.6646183736449,141.19906314951655 377.671845470906,137.281120211658 414,145 C 450.328154529094,152.718879788342 480.977236490021,172.07458230288458 516,178 C 551.022763509979,183.92541769711542 590.4192085690096,176.42055057680378 628,182 C 665.5807914309904,187.57944942319622 701.3459292339403,206.2432153899004 732,208 C 762.6540707660597,209.7567846100996 788.1970744952292,194.6065878635947 816,189 C 843.8029255047708,183.3934121364053 873.8657727851422,187.33043315572075 908,179 C 942.1342272148578,170.66956684427925 980.3398343642023,150.07167951352233 1018,140 C 1055.6601656357977,129.92832048647767 1092.7748897580489,130.38284879018988 1132,148 C 1171.2251102419511,165.61715120981012 1212.560606603602,200.39692532571812 1243,198 C 1273.439393396398,195.60307467428188 1292.9826838275421,156.02944990693769 1324,146 C 1355.0173161724579,135.97055009306231 1397.508658086229,155.48527504653117 1440,175 L 1440,500 L 0,500 Z" stroke="none" stroke-width="0" fill="url(#gradient)" fill-opacity="0.4" class="transition-all duration-300 ease-in-out delay-150 path-1"></path>
  <defs>
    <linearGradient id="gradient" x1="0%" y1="50%" x2="100%" y2="50%">
      <stop offset="5%" stop-color="#0358a8"></stop>
      <stop offset="95%" stop-color="#0358a8"></stop>
    </linearGradient>
  </defs>
  <path d="M 0,500 L 0,275 C 39.048722643228686,284.94535479437513 78.09744528645737,294.89070958875027 114,297 C 149.90255471354263,299.10929041124973 182.6589414973992,293.382516439374 217,282 C 251.3410585026008,270.617483560626 287.2667887239459,253.57922465375358 321,250 C 354.7332112760541,246.42077534624642 386.2739036068172,256.3005849456118 414,266 C 441.7260963931828,275.6994150543882 465.6375968487855,285.21843556379935 504,293 C 542.3624031512145,300.78156443620065 595.1757089980406,306.82567279919095 630,301 C 664.8242910019594,295.17432720080905 681.6595671590519,277.47887323943667 716,278 C 750.3404328409481,278.52112676056333 802.1860223657519,297.2588342430625 838,299 C 873.8139776342481,300.7411657569375 893.5963433779408,285.48578978831335 928,280 C 962.4036566220592,274.51421021168665 1011.4286041224852,278.79800660368403 1042,282 C 1072.5713958775148,285.20199339631597 1084.6892401321174,287.3221837969507 1118,288 C 1151.3107598678826,288.6778162030493 1205.8144353490457,287.9132582085133 1244,286 C 1282.1855646509543,284.0867417914867 1304.0530184717013,281.0247833689962 1334,279 C 1363.9469815282987,276.9752166310038 1401.9734907641493,275.9876083155019 1440,275 L 1440,500 L 0,500 Z" stroke="none" stroke-width="0" fill="url(#gradient)" fill-opacity="0.6" class="transition-all duration-300 ease-in-out delay-150 path-2"></path>
  <defs>
    <linearGradient id="gradient" x1="0%" y1="50%" x2="100%" y2="50%">
      <stop offset="5%" stop-color="#0358a8"></stop>
      <stop offset="95%" stop-color="#0358a"></stop>
    </linearGradient>
  </defs>
  <path d="M 0,500 L 0,375 C 38.504473790820114,364.098025980595 77.00894758164023,353.19605196119 110,351 C 142.99105241835977,348.80394803881 170.46868346425924,355.3138181358349 202,354 C 233.53131653574076,352.6861818641651 269.116318561323,343.54867549547055 301,343 C 332.883681438677,342.45132450452945 361.066042290449,350.49147988228316 394,351 C 426.933957709551,351.50852011771684 464.6195122768811,344.48540497539665 508,351 C 551.3804877231189,357.51459502460335 600.4559086020266,377.5669002161302 632,388 C 663.5440913979734,398.4330997838698 677.5568533150121,399.2469941600824 713,396 C 748.4431466849879,392.7530058399176 805.316678137925,385.44512314354 837,374 C 868.683321862075,362.55487685646 875.1764341332873,346.9725132657576 909,353 C 942.8235658667127,359.0274867342424 1003.9775853289257,386.66482379342955 1044,396 C 1084.0224146710743,405.33517620657045 1102.91322455101,396.368191560524 1131,400 C 1159.08677544899,403.631808439476 1196.3695164670357,419.86240996447435 1229,407 C 1261.6304835329643,394.13759003552565 1289.6087095808468,352.18216858157876 1324,342 C 1358.3912904191532,331.81783141842124 1399.1956452095765,353.40891570921065 1440,375 L 1440,500 L 0,500 Z" stroke="none" stroke-width="0" fill="url(#gradient)" fill-opacity="0.8" class="transition-all duration-300 ease-in-out delay-150 path-3"></path>
</svg>
